<svg xmlns="http://www.w3.org/2000/svg" viewBox="0 0 1024 1024"><defs><style>.cls-1{fill:#212d39;}.cls-2{fill:#3a4654;}</style></defs><title>Podcast Dark Placeholder</title><g id="Layer_2" data-name="Layer 2"><g id="Layer_2-2" data-name="Layer 2"><rect class="cls-1" width="1024" height="1024"/></g><g id="Layer_3" data-name="Layer 3"><path class="cls-2" d="M512,465.57h0A47,47,0,0,0,494.3,556.1V732.2a18.2,18.2,0,0,0,36.4,0V555.67A47,47,0,0,0,512,465.57Z"/><path class="cls-2" d="M512,273.6C380,273.6,272.55,381,272.55,513.05a237.33,237.33,0,0,0,74.51,173.58,18.2,18.2,0,1,0,25.08-26.38,201.26,201.26,0,0,1-63.19-147.2C308.95,401.09,400,310,512,310s203.05,91.09,203.05,203.06a201.31,201.31,0,0,1-62.73,146.76,18.2,18.2,0,1,0,25.16,26.3,237.39,237.39,0,0,0,74-173.06C751.45,381,644,273.6,512,273.6Z"/><path class="cls-2" d="M512,370.63c-78.53,0-142.43,63.89-142.43,142.43A142.78,142.78,0,0,0,416,618.23a18.2,18.2,0,0,0,24.55-26.87,106,106,0,1,1,143.39-.42,18.2,18.2,0,0,0,24.7,26.73,142.86,142.86,0,0,0,45.82-104.63C654.43,434.52,590.53,370.63,512,370.63Z"/></g></g></svg>