<svg width="23" height="20" viewBox="0 0 23 20" fill="none" xmlns="http://www.w3.org/2000/svg">
<path d="M5.47485 1.41375C5.47485 0.632958 6.08756 0 6.84338 0H9.09742C9.85323 0 10.4659 0.632958 10.4659 1.41375V1.41375C10.4659 2.19454 9.85323 2.8275 9.09742 2.8275H6.84338C6.08756 2.8275 5.47485 2.19454 5.47485 1.41375V1.41375Z" fill="#6B7A8D"/>
<path d="M5.47485 18.5862C5.47485 19.367 6.08756 20 6.84338 20H9.09742C9.85323 20 10.4659 19.367 10.4659 18.5862V18.5862C10.4659 17.8055 9.85323 17.1725 9.09742 17.1725H6.84338C6.08756 17.1725 5.47485 17.8055 5.47485 18.5862V18.5862Z" fill="#6B7A8D"/>
<path d="M2.09351 5.72161C2.09351 4.94082 2.70621 4.30786 3.46203 4.30786H9.09713C9.85295 4.30786 10.4657 4.94082 10.4657 5.72161V5.72161C10.4657 6.5024 9.85295 7.13536 9.09713 7.13536H3.46203C2.70621 7.13536 2.09351 6.5024 2.09351 5.72161V5.72161Z" fill="#6B7A8D"/>
<path d="M2.09351 14.2778C2.09351 15.0586 2.70621 15.6915 3.46203 15.6915H9.09713C9.85295 15.6915 10.4657 15.0586 10.4657 14.2778V14.2778C10.4657 13.497 9.85295 12.864 9.09713 12.864H3.46203C2.70621 12.864 2.09351 13.497 2.09351 14.2778V14.2778Z" fill="#6B7A8D"/>
<path d="M0 10.0701C0 9.28927 0.612709 8.65631 1.36852 8.65631H9.09666C9.85248 8.65631 10.4652 9.28927 10.4652 10.0701V10.0701C10.4652 10.8509 9.85248 11.4838 9.09666 11.4838H1.36852C0.61271 11.4838 0 10.8509 0 10.0701V10.0701Z" fill="#6B7A8D"/>
<path d="M17.0251 18.5856C17.0251 19.3664 16.4124 19.9994 15.6566 19.9994H13.4026C12.6468 19.9994 12.0341 19.3664 12.0341 18.5856V18.5856C12.0341 17.8048 12.6468 17.1719 13.4026 17.1719H15.6566C16.4124 17.1719 17.0251 17.8048 17.0251 18.5856V18.5856Z" fill="#6B7A8D"/>
<path d="M17.0251 1.41375C17.0251 0.632958 16.4124 0 15.6566 0H13.4026C12.6468 0 12.0341 0.632958 12.0341 1.41375V1.41375C12.0341 2.19454 12.6468 2.8275 13.4026 2.8275H15.6566C16.4124 2.8275 17.0251 2.19454 17.0251 1.41375V1.41375Z" fill="#6B7A8D"/>
<path d="M20.4065 14.2772C20.4065 15.058 19.7938 15.6909 19.038 15.6909H13.4029C12.6471 15.6909 12.0343 15.058 12.0343 14.2772V14.2772C12.0343 13.4964 12.6471 12.8634 13.4029 12.8634H19.038C19.7938 12.8634 20.4065 13.4964 20.4065 14.2772V14.2772Z" fill="#6B7A8D"/>
<path d="M20.4065 5.72161C20.4065 4.94082 19.7938 4.30786 19.038 4.30786H13.4029C12.6471 4.30786 12.0343 4.94082 12.0343 5.72161V5.72161C12.0343 6.5024 12.6471 7.13536 13.4029 7.13536H19.038C19.7938 7.13536 20.4065 6.5024 20.4065 5.72161V5.72161Z" fill="#6B7A8D"/>
<path d="M22.5 10.0695C22.5 9.28866 21.8873 8.6557 21.1315 8.6557H13.4033C12.6475 8.6557 12.0348 9.28866 12.0348 10.0695V10.0695C12.0348 10.8502 12.6475 11.4832 13.4033 11.4832H21.1315C21.8873 11.4832 22.5 10.8502 22.5 10.0695V10.0695Z" fill="#6B7A8D"/>
</svg>
