<svg xmlns="http://www.w3.org/2000/svg" viewBox="0 0 1024 1024"><defs><style>.cls-1{fill:#212d39;}.cls-2{fill:#3a4654;}</style></defs><title>Newsletter_dark</title><g id="Layer_2" data-name="Layer 2"><g id="Layer_1-2" data-name="Layer 1"><g id="Layer_2-2" data-name="Layer 2-2"><rect class="cls-1" width="1024" height="1024"/></g></g><g id="Newsletter"><path class="cls-2" d="M754,677.61V510a18,18,0,0,0-18-18H651.17V328.38A54.24,54.24,0,0,0,597,274.21H326.34a54.23,54.23,0,0,0-54.17,54.17V664.77a84.59,84.59,0,0,0,84.49,84.49H633.17l32.91,0v.1h18a70.08,70.08,0,0,0,70-70Q754.08,678.46,754,677.61ZM356.66,713.27a48.55,48.55,0,0,1-48.49-48.49V328.38a18.19,18.19,0,0,1,18.17-18.17H597a18.19,18.19,0,0,1,18.17,18.17V679.24a69.49,69.49,0,0,0,8.87,34Zm328.38,0h.21v.08H685Zm.64.06v-.07H685a34.07,34.07,0,0,1-33.87-34V528H718V679.61q0,.66,0,1.31A34,34,0,0,1,685.68,713.3Z"/><path class="cls-2" d="M532.75,405.78H391.25a18,18,0,0,0,0,36h141.5a18,18,0,0,0,0-36Z"/><path class="cls-2" d="M532.75,492.79H391.25a18,18,0,1,0,0,36h141.5a18,18,0,1,0,0-36Z"/><path class="cls-2" d="M532.75,583.3H391.25a18,18,0,0,0,0,36h141.5a18,18,0,0,0,0-36Z"/></g></g></svg>