<svg xmlns="http://www.w3.org/2000/svg" version="1.1" width="3300" height="2000"><g id="Notes"><style>
    text {
      font-family: monospace;
      text-anchor: middle;
    }
    text.emphasis {
      font-weight:bold;
    }
    text.lanchor {
      text-anchor: start;
    }
  </style><rect height="2200" id="artboard" fill="white" width="3300" x="0" y="0"/><line id="" style="fill:none;stroke:black;stroke-width:0.5;" x1="263" x2="3036" y1="292" y2="292"/><text class="lanchor emphasis" transform="matrix(1 0 0 1 263 322)">Weight/Scale Variations</text><text transform="matrix(1 0 0 1 559.711 322)">Ultralight</text><text transform="matrix(1 0 0 1 856.422 322)">Thin</text><text transform="matrix(1 0 0 1 1153.13 322)">Light</text><text transform="matrix(1 0 0 1 1449.84 322)">Regular</text><text transform="matrix(1 0 0 1 1746.56 322)">Medium</text><text transform="matrix(1 0 0 1 2043.27 322)">Semibold</text><text transform="matrix(1 0 0 1 2339.98 322)">Bold</text><text transform="matrix(1 0 0 1 2636.69 322)">Heavy</text><text transform="matrix(1 0 0 1 2933.4 322)">Black</text><text id="template-version" style="text-anchor: end;" transform="matrix(1 0 0 1 3036 1933)">Template v.1.0</text><text class="lanchor" transform="matrix(1 0 0 1 263 726)">Small</text><text class="lanchor" transform="matrix(1 0 0 1 263 1156)">Medium</text><text class="lanchor" transform="matrix(1 0 0 1 263 1586)">Large</text></g><g id="Guides"><g id="H-reference" style="fill:#27AAE1;stroke:none;" transform="matrix(1 0 0 1 339 696)"><path d="M 54.9316 0 L 57.666 0 L 30.5664 -70.459 L 28.0762 -70.459 L 0.976562 0 L 3.66211 0 L 12.9395 -24.4629 L 45.7031 -24.4629 Z M 29.1992 -67.0898 L 29.4434 -67.0898 L 44.8242 -26.709 L 13.8184 -26.709 Z"/></g><line id="Baseline-S" style="fill:none;stroke:#27AAE1;opacity:1;stroke-width:0.577;" x1="263" x2="3036" y1="696" y2="696"/><line id="Capline-S" style="fill:none;stroke:#27AAE1;opacity:1;stroke-width:0.577;" x1="263" x2="3036" y1="625.541" y2="625.541"/><g id="H-reference" style="fill:#27AAE1;stroke:none;" transform="matrix(1 0 0 1 339 1126)"><path d="M 54.9316 0 L 57.666 0 L 30.5664 -70.459 L 28.0762 -70.459 L 0.976562 0 L 3.66211 0 L 12.9395 -24.4629 L 45.7031 -24.4629 Z M 29.1992 -67.0898 L 29.4434 -67.0898 L 44.8242 -26.709 L 13.8184 -26.709 Z"/></g><line id="Baseline-M" style="fill:none;stroke:#27AAE1;opacity:1;stroke-width:0.577;" x1="263" x2="3036" y1="1126" y2="1126"/><line id="Capline-M" style="fill:none;stroke:#27AAE1;opacity:1;stroke-width:0.577;" x1="263" x2="3036" y1="1055.54" y2="1055.54"/><g id="H-reference" style="fill:#27AAE1;stroke:none;" transform="matrix(1 0 0 1 339 1556)"><path d="M 54.9316 0 L 57.666 0 L 30.5664 -70.459 L 28.0762 -70.459 L 0.976562 0 L 3.66211 0 L 12.9395 -24.4629 L 45.7031 -24.4629 Z M 29.1992 -67.0898 L 29.4434 -67.0898 L 44.8242 -26.709 L 13.8184 -26.709 Z"/></g><line id="Baseline-L" style="fill:none;stroke:#27AAE1;opacity:1;stroke-width:0.577;" x1="263" x2="3036" y1="1556" y2="1556"/><line id="Capline-L" style="fill:none;stroke:#27AAE1;opacity:1;stroke-width:0.577;" x1="263" x2="3036" y1="1485.54" y2="1485.54"/><rect height="119.336" id="left-margin" style="fill:darkred;stroke:none;opacity:0.4;" width="12.4512" x="1394.06" y="1030.79"/><rect height="119.336" id="right-margin" style="fill:darkgreen;stroke:none;opacity:0.4;" width="12.4512" x="1502.5112" y="1030.79"/><rect x="1406.5112" y="1045" width="96" height="96" fill="none" stroke="blue" stroke-dasharray="5"/><rect x="1394.06" y="1030.79" width="120.9024" height="119.336" fill="none" stroke="blue"/></g><g id="Symbols"><g id="Bold-L" transform="matrix(1 0 0 1 2266 1556)"><path d="M91.429 33.14  80.625 22.336  99.008 4.115  80.625 -14.106  91.429 -24.91  109.65 -6.527  127.871 -24.91  138.836 -14.106  120.454 4.115  138.836 22.336  127.871 33.14  109.65 14.758  91.429 33.14 Z M15.964 -6.527 V-21.846 H71.918 V-6.527 H15.964 Z M15.964 -37.004 V-52.161 H97.395 V-37.004 H15.964 Z M15.964 -67.319 V-82.476 H97.395 V-67.319 H15.964 Z"/></g><g id="Semibold-L" transform="matrix(1 0 0 1 1970.27 1556)"><path d="M91.709 31.458  82.588 22.336  100.97 4.115  82.588 -14.106  91.709 -23.228  109.93 -4.845  128.152 -23.228  137.364 -14.106  118.982 4.115  137.364 22.336  128.152 31.458  109.93 13.075  91.709 31.458 Z M17.436 -8.49 V-21.356 H70.095 V-8.49 H17.436 Z M17.436 -37.284 V-50.058 H96.413 V-37.284 H17.436 Z M17.436 -65.987 V-78.761 H96.413 V-65.987 H17.436 Z"/></g><g id="Medium-L" transform="matrix(1 0 0 1 1674.31 1556)"><path d="M91.919 30.195  84.06 22.336  102.443 4.115  84.06 -14.106  91.919 -21.965  110.141 -3.583  128.362 -21.965  136.26 -14.106  117.877 4.115  136.26 22.336  128.362 30.195  110.141 11.813  91.919 30.195 Z M18.54 -9.963 V-20.987 H68.728 V-9.963 H18.54 Z M18.54 -37.494 V-48.481 H95.677 V-37.494 H18.54 Z M18.54 -64.988 V-75.974 H95.677 V-64.988 H18.54 Z"/></g><g id="Regular-L" transform="matrix(1 0 0 1 1378.56 1556)"><path d="M92.074 29.27  85.14 22.336  103.523 4.115  85.14 -14.106  92.074 -21.04  110.295 -2.657  128.516 -21.04  135.45 -14.106  117.068 4.115  135.45 22.336  128.516 29.27  110.295 10.888  92.074 29.27 Z M19.35 -11.042 V-20.717 H67.725 V-11.042 H19.35 Z M19.35 -37.649 V-47.324 H95.138 V-37.649 H19.35 Z M19.35 -64.255 V-73.93 H95.138 V-64.255 H19.35 Z"/></g><g id="Light-L" transform="matrix(1 0 0 1 1082.77 1556)"><path d="M92.632 27.037  87.311 21.778  105.259 3.929  87.311 -13.92  92.632 -19.179  110.419 -1.231  128.268 -19.179  133.527 -13.92  115.579 3.929  133.527 21.778  128.268 27.037  110.419 9.089  92.632 27.037 Z M21.273 -12.221 V-19.539 H68.779 V-12.221 H21.273 Z M21.273 -38.641 V-45.959 H95.758 V-38.641 H21.273 Z M21.273 -64.999 V-72.317 H95.758 V-64.999 H21.273 Z"/></g><g id="Thin-L" transform="matrix(1 0 0 1 787.282 1556)"><path d="M93.19 24.805  89.481 21.22  106.996 3.743  89.481 -13.734  93.19 -17.319  110.543 0.195  128.02 -17.319  131.605 -13.734  114.091 3.743  131.605 21.22  128.02 24.805  110.543 7.29  93.19 24.805 Z M23.195 -13.399 V-18.361 H69.834 V-13.399 H23.195 Z M23.195 -39.633 V-44.595 H96.378 V-39.633 H23.195 Z M23.195 -65.743 V-70.705 H96.378 V-65.743 H23.195 Z"/></g><g id="Ultralight-L" transform="matrix(1 0 0 1 491.205 1556)"><path d="M93.525 23.465  90.784 20.885  108.038 3.631  90.784 -13.622  93.525 -16.202  110.618 1.051  127.871 -16.202  130.451 -13.622  113.198 3.631  130.451 20.885  127.871 23.465  110.618 6.211  93.525 23.465 Z M24.349 -14.106 V-17.654 H70.466 V-14.106 H24.349 Z M24.349 -40.229 V-43.776 H96.75 V-40.229 H24.349 Z M24.349 -66.19 V-69.737 H96.75 V-66.19 H24.349 Z"/></g><g id="Bold-M" transform="matrix(1 0 0 1 2281.8 1126)"><path d="M71.375 18.77  60.375 7.77  73.375 -5.23  60.375 -18.23  71.375 -29.23  84.375 -16.23  97.375 -29.23  108.5 -18.23  95.5 -5.23  108.5 7.77  97.375 18.77  84.375 5.77  71.375 18.77 Z M11.5 -10.605 V-26.355 H54.25 V-10.605 H11.5 Z M11.5 -34.48 V-50.23 H72.25 V-34.48 H11.5 Z M11.5 -58.355 V-74.105 H72.25 V-58.355 H11.5 Z"/></g><g id="Semibold-M" transform="matrix(1 0 0 1 1985.97 1126)"><path d="M71.647 17.031  62.386 7.77  75.386 -5.23  62.386 -18.23  71.647 -27.491  84.647 -14.491  97.647 -27.491  106.978 -18.23  93.978 -5.23  106.978 7.77  97.647 17.031  84.647 4.031  71.647 17.031 Z M13.022 -12.616 V-25.866 H52.402 V-12.616 H13.022 Z M13.022 -34.806 V-48.056 H71.272 V-34.806 H13.022 Z M13.022 -56.996 V-70.247 H71.272 V-56.996 H13.022 Z"/></g><g id="Medium-M" transform="matrix(1 0 0 1 1689.91 1126)"><path d="M71.85 15.727  63.894 7.77  76.894 -5.23  63.894 -18.23  71.85 -26.186  84.85 -13.186  97.85 -26.186  105.837 -18.23  92.837 -5.23  105.837 7.77  97.85 15.727  84.85 2.727  71.85 15.727 Z M14.163 -14.124 V-25.499 H51.016 V-14.124 H14.163 Z M14.163 -35.051 V-46.426 H70.538 V-35.051 H14.163 Z M14.163 -55.977 V-67.352 H70.538 V-55.977 H14.163 Z"/></g><g id="Regular-M" transform="matrix(1 0 0 1 1394.06 1126)"><path d="M72 14.77  65 7.77  78 -5.23  65 -18.23  72 -25.23  85 -12.23  98 -25.23  105 -18.23  92 -5.23  105 7.77  98 14.77  85 1.77  72 14.77 Z M15 -15.23 V-25.23 H50 V-15.23 H15 Z M15 -35.23 V-45.23 H70 V-35.23 H15 Z M15 -55.23 V-65.23 H70 V-55.23 H15 Z"/></g><g id="Light-M" transform="matrix(1 0 0 1 1098.18 1126)"><path d="M72.24 13.039  66.971 7.77  79.971 -5.23  66.971 -18.23  72.24 -23.499  85.24 -10.499  98.24 -23.499  103.51 -18.23  90.51 -5.23  103.51 7.77  98.24 13.039  85.24 0.039  72.24 13.039 Z M16.491 -16.48 V-23.98 H51.49 V-16.48 H16.491 Z M16.491 -36.48 V-43.98 H71.49 V-36.48 H16.491 Z M16.491 -56.48 V-63.98 H71.49 V-56.48 H16.491 Z"/></g><g id="Thin-M" transform="matrix(1 0 0 1 802.565 1126)"><path d="M72.481 11.309  68.942 7.77  81.942 -5.23  68.942 -18.23  72.481 -21.768  85.481 -8.768  98.481 -21.768  102.019 -18.23  89.019 -5.23  102.019 7.77  98.481 11.309  85.481 -1.691  72.481 11.309 Z M17.981 -17.73 V-22.73 H52.981 V-17.73 H17.981 Z M17.981 -37.73 V-42.73 H72.981 V-37.73 H17.981 Z M17.981 -57.73 V-62.73 H72.981 V-57.73 H17.981 Z"/></g><g id="Ultralight-M" transform="matrix(1 0 0 1 506.415 1126)"><path d="M72.625 10.27  70.125 7.77  83.125 -5.23  70.125 -18.23  72.625 -20.73  85.625 -7.73  98.625 -20.73  101.125 -18.23  88.125 -5.23  101.125 7.77  98.625 10.27  85.625 -2.73  72.625 10.27 Z M18.875 -18.48 V-21.98 H53.875 V-18.48 H18.875 Z M18.875 -38.48 V-41.98 H73.875 V-38.48 H18.875 Z M18.875 -58.48 V-61.98 H73.875 V-58.48 H18.875 Z"/></g><g id="Bold-S" transform="matrix(1 0 0 1 2294.23 696)"><path d="M56.611 -8.404  48.425 -16.59  57.696 -25.762  48.425 -35.033  56.611 -43.219  65.783 -33.948  75.054 -43.219  83.338 -35.033  74.067 -25.762  83.338 -16.59  75.054 -8.404  65.783 -17.675  56.611 -8.404 Z M11.441 -28.129 V-39.767 H45.959 V-28.129 H11.441 Z M11.441 -45.98 V-57.618 H58.583 V-45.98 H11.441 Z M11.441 -63.831 V-75.469 H58.583 V-63.831 H11.441 Z"/></g><g id="Semibold-S" transform="matrix(1 0 0 1 1998.1 696)"><path d="M56.825 -9.776  50.011 -16.59  59.282 -25.762  50.011 -35.033  56.825 -41.847  65.997 -32.576  75.268 -41.847  82.138 -35.033  72.867 -25.762  82.138 -16.59  75.268 -9.776  65.997 -19.047  56.825 -9.776 Z M12.641 -29.715 V-39.381 H44.501 V-29.715 H12.641 Z M12.641 -46.237 V-55.903 H57.811 V-46.237 H12.641 Z M12.641 -62.759 V-72.425 H57.811 V-62.759 H12.641 Z"/></g><g id="Medium-S" transform="matrix(1 0 0 1 1701.85 696)"><path d="M56.986 -10.805  51.201 -16.59  60.472 -25.762  51.201 -35.033  56.986 -40.817  66.158 -31.547  75.429 -40.817  81.237 -35.033  71.966 -25.762  81.237 -16.59  75.429 -10.805  66.158 -20.076  56.986 -10.805 Z M13.542 -30.905 V-39.091 H43.408 V-30.905 H13.542 Z M13.542 -46.43 V-54.616 H57.232 V-46.43 H13.542 Z M13.542 -61.955 V-70.141 H57.232 V-61.955 H13.542 Z"/></g><g id="Regular-S" transform="matrix(1 0 0 1 1405.73 696)"><path d="M57.104 -11.56  52.074 -16.59  61.345 -25.762  52.074 -35.033  57.104 -40.063  66.276 -30.792  75.547 -40.063  80.577 -35.033  71.306 -25.762  80.577 -16.59  75.547 -11.56  66.276 -20.831  57.104 -11.56 Z M14.202 -31.778 V-38.879 H42.606 V-31.778 H14.202 Z M14.202 -46.572 V-53.673 H56.808 V-46.572 H14.202 Z M14.202 -61.366 V-68.467 H56.808 V-61.366 H14.202 Z"/></g><g id="Light-S" transform="matrix(1 0 0 1 1109.75 696)"><path d="M57.294 -12.926  53.629 -16.59  62.9 -25.762  53.629 -35.033  57.294 -38.697  66.466 -29.426  75.736 -38.697  79.401 -35.033  70.13 -25.762  79.401 -16.59  75.736 -12.926  66.466 -22.196  57.294 -12.926 Z M15.378 -32.764 V-37.893 H43.782 V-32.764 H15.378 Z M15.378 -47.558 V-52.687 H57.984 V-47.558 H15.378 Z M15.378 -62.352 V-67.48 H57.984 V-62.352 H15.378 Z"/></g><g id="Thin-S" transform="matrix(1 0 0 1 814.015 696)"><path d="M57.483 -14.291  55.184 -16.59  64.455 -25.762  55.184 -35.033  57.483 -37.332  66.655 -28.061  75.926 -37.332  78.225 -35.033  68.954 -25.762  78.225 -16.59  75.926 -14.291  66.655 -23.562  57.483 -14.291 Z M16.554 -33.751 V-36.907 H44.958 V-33.751 H16.554 Z M16.554 -48.544 V-51.7 H59.16 V-48.544 H16.554 Z M16.554 -63.338 V-66.494 H59.16 V-63.338 H16.554 Z"/></g><g id="Ultralight-S" transform="matrix(1 0 0 1 517.792 696)"><path d="M57.597 -15.11  56.118 -16.59  65.388 -25.762  56.118 -35.033  57.597 -36.512  66.769 -27.241  76.04 -36.512  77.519 -35.033  68.249 -25.762  77.519 -16.59  76.04 -15.11  66.769 -24.381  57.597 -15.11 Z M17.259 -34.342 V-36.315 H45.663 V-34.342 H17.259 Z M17.259 -49.136 V-51.109 H59.865 V-49.136 H17.259 Z M17.259 -63.93 V-65.902 H59.865 V-63.93 H17.259 Z"/></g></g></svg>