<svg xmlns="http://www.w3.org/2000/svg" viewBox="0 0 1024 1024"><defs><style>.cls-1{fill:#ebedef;}.cls-2{fill:#b0b7bc;}</style></defs><title>Video_light</title><g id="Layer_2" data-name="Layer 2"><g id="Layer_1-2" data-name="Layer 1"><g id="Layer_2-2" data-name="Layer 2-2"><rect class="cls-1" width="1024" height="1024"/></g></g><g id="Layer_3" data-name="Layer 3"><path class="cls-2" d="M697.65,273.28H327a54,54,0,0,0-54,54V694.77a54,54,0,0,0,54,54H697.65a54,54,0,0,0,54-54V327.28A54,54,0,0,0,697.65,273.28ZM354.73,708.53h-56.5V652h56.5Zm0-113.31h-56.5v-56.5h56.5Zm0-113.14h-56.5v-56.5h56.5Zm0-113.31h-56.5v-56.5h56.5ZM590.11,526.43,480.7,589.6a20,20,0,0,1-30-17.32V445.95a20,20,0,0,1,30-17.32l109.41,63.17A20,20,0,0,1,590.11,526.43Zm135.14,182.1h-56.5V652h56.5Zm0-113.31h-56.5v-56.5h56.5Zm0-113.14h-56.5v-56.5h56.5Zm0-113.31h-56.5v-56.5h56.5Z"/></g></g></svg>