<svg width="12" height="12" viewBox="0 0 12 12" fill="none" xmlns="http://www.w3.org/2000/svg">
<path d="M9.74999 7.5C9.65148 7.49994 9.55393 7.5193 9.46291 7.55697C9.37189 7.59464 9.28919 7.64989 9.21954 7.71954C9.14988 7.7892 9.09464 7.8719 9.05697 7.96292C9.0193 8.05394 8.99994 8.15149 8.99999 8.24999V10.5H1.5V3H3.75C3.94891 3 4.13967 2.92098 4.28033 2.78033C4.42098 2.63968 4.5 2.44891 4.5 2.25C4.5 2.05109 4.42098 1.86032 4.28033 1.71967C4.13967 1.57902 3.94891 1.5 3.75 1.5H0.749999C0.651492 1.49994 0.55394 1.51931 0.462921 1.55698C0.371902 1.59465 0.2892 1.64989 0.219545 1.71955C0.14989 1.7892 0.0946478 1.8719 0.0569766 1.96292C0.0193054 2.05394 -5.57476e-05 2.15149 1.20564e-07 2.25V11.25C-5.57476e-05 11.3485 0.0193054 11.4461 0.0569766 11.5371C0.0946478 11.6281 0.14989 11.7108 0.219545 11.7804C0.2892 11.8501 0.371902 11.9053 0.462921 11.943C0.55394 11.9807 0.651492 12 0.749999 12H9.74999C9.8485 12 9.94605 11.9807 10.0371 11.943C10.1281 11.9053 10.2108 11.8501 10.2804 11.7804C10.3501 11.7108 10.4053 11.6281 10.443 11.5371C10.4807 11.4461 10.5 11.3485 10.5 11.25V8.24999C10.5 8.15149 10.4807 8.05394 10.443 7.96292C10.4053 7.8719 10.3501 7.7892 10.2804 7.71954C10.2108 7.64989 10.1281 7.59464 10.0371 7.55697C9.94605 7.5193 9.8485 7.49994 9.74999 7.5Z" fill="white"/>
<path d="M11.7803 1.71972L10.2803 0.219723C10.2106 0.150065 10.128 0.0948066 10.037 0.0571057C9.94601 0.0194048 9.84848 0 9.75 0C9.65151 0 9.55398 0.0194048 9.463 0.0571057C9.37201 0.0948066 9.28935 0.150065 9.21972 0.219723L4.71973 4.71972C4.65005 4.78934 4.59479 4.872 4.55709 4.96299C4.51938 5.05398 4.49999 5.1515 4.5 5.24999V6.74999C4.49994 6.8485 4.51931 6.94605 4.55698 7.03707C4.59465 7.12809 4.64989 7.21079 4.71955 7.28045C4.7892 7.3501 4.8719 7.40534 4.96292 7.44302C5.05394 7.48069 5.15149 7.50005 5.25 7.49999H6.75C6.84849 7.50001 6.94602 7.48061 7.037 7.44291C7.12799 7.40521 7.21066 7.34994 7.28027 7.28027L11.7803 2.78027C11.8499 2.71065 11.9052 2.62798 11.9429 2.53699C11.9806 2.44601 12 2.34848 12 2.25C12 2.15151 11.9806 2.05399 11.9429 1.963C11.9052 1.87201 11.8499 1.78935 11.7803 1.71972ZM6.43945 5.99999H6V5.56054L9.75 1.81055L10.1894 2.25L6.43945 5.99999Z" fill="white"/>
</svg>
